<svg width="1277" height="384" xmlns="http://www.w3.org/2000/svg" xmlns:xlink="http://www.w3.org/1999/xlink" overflow="hidden"><defs><clipPath id="clip0"><rect x="0" y="0" width="1277" height="384"/></clipPath></defs><g clip-path="url(#clip0)"><rect x="0" y="0" width="1277" height="383.95" fill="#1873EC" fill-opacity="0"/><text fill="#FFFFFF" font-family="Yu Gothic Medium,Yu Gothic Medium_MSFontService,sans-serif" font-weight="700" font-size="213" transform="matrix(1 0 0 0.999869 380.215 195)">Waterlab</text><path d="M0 193.975 217.472 193.975 434.943 193.975 652.415 193.975 869.886 193.975 869.886 204.973 652.415 204.973 434.943 204.973 217.472 204.973 0 204.973Z" fill="#FFFFFF" fill-rule="evenodd" transform="matrix(1.00013 0 0 1 380.215 22.0533)"/><text fill="#FFFFFF" font-family="Yu Gothic Medium,Yu Gothic Medium_MSFontService,sans-serif" font-weight="500" font-size="85" transform="matrix(1 0 0 0.999869 380.215 324)">hydrology</text><text fill="#FFFFFF" font-family="Yu Gothic Medium,Yu Gothic Medium_MSFontService,sans-serif" font-weight="500" font-size="85" transform="matrix(1 0 0 0.999869 782.768 324)">&amp;</text><text fill="#FFFFFF" font-family="Yu Gothic Medium,Yu Gothic Medium_MSFontService,sans-serif" font-weight="500" font-size="85" transform="matrix(1 0 0 0.999869 868.446 324)">hydraulics</text><g><g><g><path d="M131.151 148.184C145.812 148.184 153.178 152.836 156.096 155.364 156.312 155.554 156.642 155.532 156.831 155.316 156.954 155.177 156.993 154.982 156.933 154.806 155.126 149.627 150.162 136.564 144.759 132.578 139.104 128.195 129.723 126.715 125.123 132.95 120.97 138.576 123.993 148.188 131.151 148.184Z" fill="#FFFFFF" transform="matrix(1.00013 0 0 1 16 13.9982)"/><path d="M206.639 140.524C211.773 135.958 218.324 133.299 225.189 132.995 230.793 132.352 232.295 124.558 228.536 120.528 224.371 116.066 217.162 118.066 213.131 122.015 209.413 125.495 206.747 135.549 205.717 140.041 205.652 140.332 205.835 140.62 206.125 140.685 206.313 140.726 206.508 140.665 206.639 140.524Z" fill="#FFFFFF" transform="matrix(1.00013 0 0 1 16 13.9982)"/><path d="M148.943 183.939C152.384 182.844 155.44 180.787 157.751 178.012 105.022 181.128 65.0696 195.889 65.0696 213.64 65.0696 233.652 115.843 249.867 178.477 249.867 241.111 249.867 291.884 233.641 291.884 213.629 291.884 195.878 251.946 181.12 199.232 178.004 201.55 180.782 204.612 182.839 208.059 183.935 239.382 187.683 261.866 197.172 261.866 208.171L261.773 209.264 261.271 211.264C256.263 224.256 220.493 234.135 178.477 234.135 132.742 234.135 95.0872 222.419 95.0872 208.182 95.0872 197.176 117.594 187.683 148.943 183.939Z" fill="#FFFFFF" transform="matrix(1.00013 0 0 1 16 13.9982)"/><path d="M193.722 165.942C193.997 167.229 194.305 168.46 194.655 169.62 194.77 169.992 194.926 170.363 195.06 170.713 246.989 173.234 317.912 187.133 317.912 214.101 317.912 244.078 230.265 257.914 178.477 257.914 126.689 257.914 39.0418 244.078 39.0418 214.101 39.0418 187.129 109.99 173.23 161.938 170.713 162.068 170.341 162.228 169.995 162.339 169.62 162.711 168.46 163.001 167.229 163.273 165.942 75.9381 168.277 7.43653 190.602 7.43653 220.887 7.43653 252.909 84.0328 278.87 178.477 278.87 272.921 278.87 349.517 252.909 349.517 220.887 349.517 190.606 281.03 168.281 193.722 165.942Z" fill="#FFFFFF" transform="matrix(1.00013 0 0 1 16 13.9982)"/><path d="M210.257 189.71C209.186 189.479 208.119 189.249 207.003 189.04 198.348 187.385 191.104 181.493 187.72 173.357 185.813 168.165 184.842 162.676 184.854 157.145 184.578 135.858 189.498 127.693 197.774 113.593 200.786 109.198 202.544 104.068 202.861 98.7497 202.876 85.3 191.986 74.3839 178.536 74.3653L178.451 74.3653C164.999 74.3816 154.108 85.2985 154.122 98.7497 154.437 104.068 156.196 109.199 159.209 113.593 167.485 127.693 172.405 135.858 172.13 157.145 172.14 162.676 171.168 168.165 169.259 173.357 165.876 181.492 158.633 187.384 149.98 189.04L146.726 189.71C146.005 189.866 145.284 190.014 144.588 190.178 143.413 190.45 142.291 190.736 141.212 191.033L140.138 191.331C139.665 191.468 139.212 191.613 138.758 191.755 126.655 195.439 118.984 200.76 118.984 206.698 118.984 217.808 145.633 226.814 178.477 226.814 211.32 226.814 237.969 217.808 237.969 206.698 237.969 200.749 230.313 195.439 218.21 191.755 217.756 191.613 217.303 191.468 216.827 191.331L215.756 191.033C214.674 190.736 213.555 190.45 212.38 190.178Z" fill="#FFFFFF" transform="matrix(1.00013 0 0 1 16 13.9982)"/></g></g></g></g></svg>